<svg xmlns="http://www.w3.org/2000/svg" viewBox="0 0 328.41 41"><title>ClearScore-logo-2019__logotype-R</title><g id="Logotypes"><path d="M84.8,27.88l4.72,4.77c-4.24,4.77-9.43,6.68-15.63,6.68-11.24,0-19.4-7.95-19.4-19.08S62.65,1.18,73.89,1.18c6.2,0,11.39,1.9,15.63,6.67L84.8,12.62c-2.65-2.81-6.2-5-10.38-5-7.21,0-12.19,4.72-12.19,12.61s5,12.62,12.19,12.62C78.6,32.87,82.15,30.69,84.8,27.88Z"/><path d="M94.29.65h6.89V38.8H94.29Z"/><path d="M131.18,27.41h-17.7c.48,4.13,3,6.3,6.68,6.3a8.87,8.87,0,0,0,6.57-2.54l3.92,3.92a15.68,15.68,0,0,1-11.13,4.24c-8,0-13.2-5.19-13.2-13.51s5.94-13.52,13.09-13.52c7.58,0,11.77,4.67,11.77,12.3Zm-7.1-4.66c0-2.87-1.59-5.15-4.88-5.15-3,0-4.87,1.86-5.56,5.15Z"/><path d="M151.69,35.2a9.37,9.37,0,0,1-8.37,4.13c-4.61,0-7.95-3-7.95-7.42,0-5.56,4.82-8.64,15.9-8.64V21.74c0-2.44-1.49-4.14-4.61-4.14a8.76,8.76,0,0,0-7.21,3.71l-3.92-3.92A14.13,14.13,0,0,1,147,12.3c6.89,0,11.13,3,11.13,10.5v16h-6.47Zm-9.27-4c0,1.59,1.16,2.81,3.6,2.81,3.29,0,5.25-2.12,5.25-5.4v-1C144.06,27.67,142.42,29,142.42,31.22Z"/><path d="M171.35,29.42V38.8h-6.89v-26h6.89v5.35c1.8-4.3,5.25-5.89,9.22-5.89v7.32C173.26,19.62,171.35,23,171.35,29.42Z"/><path d="M197.9,39.33a21.35,21.35,0,0,1-13.77-4.61L187.84,29a17.4,17.4,0,0,0,10.33,3.92c4.24,0,6.31-1.54,6.31-4.35,0-6.89-18.76-1.8-18.76-16.11,0-7,5.77-11.23,13.3-11.23a18.37,18.37,0,0,1,12.56,4.39l-3.71,5.62a14.13,14.13,0,0,0-8.75-3.55c-3.44,0-5.67,1.64-5.67,4.19,0,7.31,18.71,2,18.71,16C212.16,34.46,207.12,39.33,197.9,39.33Z"/><path d="M240.09,16.76l-4.34,4.34a7.47,7.47,0,0,0-6.15-2.75c-3.92,0-6.68,2.49-6.68,7.47s2.76,7.47,6.68,7.47a7.64,7.64,0,0,0,6.15-2.75l4.34,4.34a13.88,13.88,0,0,1-10.49,4.45c-8,0-13.78-5.14-13.78-13.51S221.6,12.3,229.6,12.3A13.89,13.89,0,0,1,240.09,16.76Z"/><path d="M255.73,12.3c7.84,0,13.4,5.36,13.4,13.52s-5.56,13.51-13.4,13.51S242.27,34,242.27,25.82,247.88,12.3,255.73,12.3Zm0,21c4.13,0,6.36-2.91,6.36-7.47s-2.23-7.47-6.36-7.47-6.36,2.91-6.36,7.47S251.59,33.29,255.73,33.29Z"/><path d="M281.17,29.42V38.8h-6.89v-26h6.89v5.35c1.8-4.3,5.24-5.89,9.22-5.89v7.32C283.08,19.62,281.17,23,281.17,29.42Z"/><path d="M317.26,27.41h-17.7c.48,4.13,3,6.3,6.68,6.3a8.87,8.87,0,0,0,6.57-2.54l3.92,3.92a15.7,15.7,0,0,1-11.13,4.24c-8,0-13.2-5.19-13.2-13.51s5.94-13.52,13.09-13.52c7.58,0,11.77,4.67,11.77,12.3Zm-7.1-4.66c0-2.87-1.59-5.15-4.88-5.15-3,0-4.87,1.86-5.56,5.15Z"/><path d="M328.07,12.71a4.21,4.21,0,1,1-4.2-4.21A4.2,4.2,0,0,1,328.07,12.71Zm-.62,0a3.59,3.59,0,1,0-3.58,3.58A3.57,3.57,0,0,0,327.45,12.71Zm-2.55.5,1.19,1.9h-1.44l-1-1.66h-.45v1.66h-1.35v-4.9h2c.86,0,1.94.27,1.94,1.58A1.49,1.49,0,0,1,324.9,13.21Zm-1.69-.9h.48c.37,0,.64-.07.64-.47s-.27-.49-.64-.49h-.48Z"/></g><g id="Logomarks"><path d="M2.17.61V23.55a12.23,12.23,0,0,1,3.44-.5,12.37,12.37,0,0,1,3.46.5v-16H33.43V31.88h-16a11.9,11.9,0,0,1,.51,3.45,12.3,12.3,0,0,1-.5,3.45H40.33V.61Z"/><circle cx="5.61" cy="35.33" r="5.38"/></g></svg>